<svg xmlns="http://www.w3.org/2000/svg" viewBox="0 0 84.58 49.1"><defs><style>.cls-1{opacity:0.8;}.cls-2,.cls-3{fill:#999;}.cls-2{fill-rule:evenodd;}.cls-4{fill:red;}</style></defs><title>body_icon</title><g id="Layer_2" data-name="Layer 2"><g id="Layer_1-2" data-name="Layer 1"><g class="cls-1"><path class="cls-2" d="M33.67,30c1.06,0,2.12,0,3.18,0a23.37,23.37,0,0,1-.55-3.48c-.88,0-1.76,0-2.63,0-4,0-8-.12-12.1-.38-.82-.05-1.08.11-1.5.85l-1.34,2.36c-.09.25,0,.4.29.4C23.84,29.93,28.75,30,33.67,30ZM7.21,35.29a2,2,0,1,0,2-2A2,2,0,0,0,7.21,35.29Zm8.45-2.56L16,37.86a188.94,188.94,0,0,0,24.74.68,23.62,23.62,0,0,1-3.46-6.85H16.72C15.94,31.67,15.59,32,15.66,32.73ZM46.33,5.08a115.6,115.6,0,0,0-12.66-.61c-9.51,0-19,.9-20.17,2.77L9.86,14.51c-.4.8-.59,1.39-.89,1.85a3.42,3.42,0,0,1-1.11-.65l.39-2.92c.07-.51,0-1-.48-1l-5.62-.61a1.32,1.32,0,0,0-1.3.64L.09,13.35A.72.72,0,0,0,.57,14.4l5.86,2A2.12,2.12,0,0,1,7,17.62C2.24,19.18,1.68,27.34,2,33.85a.85.85,0,0,0,0,.23v9.67a.89.89,0,0,0,.88.88H15.77a.88.88,0,0,0,.88-.88v-3q8.51.76,17,.76c3.15,0,6.3-.09,9.45-.24-.4-.41-.79-.83-1.16-1.27-2.76.12-5.53.19-8.29.19q-9,0-17.88-.84l-2.81,1L4.6,39.57a1.88,1.88,0,0,1-.66-.16c-.28-.35-.66-5.87-.69-6.72C3,27.28,3.58,20,7.48,18.84a5.6,5.6,0,0,0,1.71-.79c.78-.57.82-.91,2-.9q13,.77,26.06.64A23.83,23.83,0,0,1,46.33,5.08Z"/><path class="cls-3" d="M60,49.1A24.55,24.55,0,1,1,84.58,24.55,24.58,24.58,0,0,1,60,49.1ZM60,1.49A23.06,23.06,0,1,0,83.09,24.55,23.08,23.08,0,0,0,60,1.49Z"/><path class="cls-4" d="M69.1,27.4A9.07,9.07,0,0,1,51,27.4c0-5,5.23-10.1,9.07-17.38C63.75,17.1,69.1,22.39,69.1,27.4Z"/><path class="cls-2" d="M6.61,22.26c-.18-.06-.25,0-.3.17A6.21,6.21,0,0,0,6,24.77a.93.93,0,0,0,.27.56l3,2.68a1.63,1.63,0,0,0,.92.37l5.67.64a.82.82,0,0,0,.83-.32l1.44-2.24c.13-.19.15-.45-.1-.53L6.61,22.26Z"/></g></g></g></svg>