<svg xmlns="http://www.w3.org/2000/svg" viewBox="0 0 84.33 48.95"><defs><style>.cls-1{opacity:0.8;}.cls-2,.cls-3{fill:#999;}.cls-2{fill-rule:evenodd;}.cls-4{fill:red;}</style></defs><title>engine_icon</title><g id="Layer_2" data-name="Layer 2"><g id="Layer_1-2" data-name="Layer 1"><g class="cls-1"><path class="cls-2" d="M33.57,29.92c1.06,0,2.11,0,3.17,0a23,23,0,0,1-.54-3.47c-.88,0-1.76,0-2.63,0-4,0-8-.11-12.07-.37-.81-.05-1.07.1-1.49.85l-1.33,2.34c-.09.25,0,.41.29.4C23.77,29.84,28.67,29.92,33.57,29.92Zm-18,2.71L16,37.76a189.67,189.67,0,0,0,24.67.67A23.74,23.74,0,0,1,37.2,31.6H16.67C15.89,31.57,15.54,31.92,15.61,32.63ZM7.19,35.19a2,2,0,1,0,2-2A2,2,0,0,0,7.19,35.19Zm39-30.12a112.29,112.29,0,0,0-12.62-.61c-9.48,0-18.94.89-20.11,2.76L9.84,14.46c-.41.81-.6,1.39-.89,1.85a3.16,3.16,0,0,1-1.11-.65l.39-2.91c.07-.5,0-1-.48-1L2.14,11.1a1.28,1.28,0,0,0-1.29.64L.09,13.31a.72.72,0,0,0,.48,1l5.84,2.05a2.06,2.06,0,0,1,.53,1.16C2.23,19.13,1.68,27.26,2,33.75A.91.91,0,0,0,2,34v9.64a.88.88,0,0,0,.87.88H15.73a.88.88,0,0,0,.87-.88V40.67q8.49.77,17,.75c3.14,0,6.28-.08,9.43-.23-.41-.41-.79-.83-1.16-1.26-2.76.12-5.51.18-8.27.18q-8.94,0-17.82-.83l-2.81,1-8.35-.81a1.82,1.82,0,0,1-.66-.15c-.28-.35-.66-5.86-.69-6.7C3,27.2,3.56,20,7.45,18.78A5.68,5.68,0,0,0,9.17,18c.77-.57.81-.91,1.94-.9q13,.76,26,.64A23.79,23.79,0,0,1,46.19,5.07Z"/><path class="cls-3" d="M59.85,49A24.48,24.48,0,1,1,84.33,24.48,24.5,24.5,0,0,1,59.85,49Zm0-47.47a23,23,0,1,0,23,23A23,23,0,0,0,59.85,1.48Z"/><path class="cls-4" d="M73.53,16.25,68,21.8a2.66,2.66,0,0,1-3.76,0l-2.43-2.43a2.66,2.66,0,0,1,0-3.76l5.55-5.56a9.26,9.26,0,1,0,6.19,6.2Z"/><path class="cls-4" d="M55.32,22.07l-8.26,8.27a4.38,4.38,0,1,0,6.19,6.19l8.27-8.27A9.14,9.14,0,0,1,57.64,26,9.27,9.27,0,0,1,55.32,22.07ZM51.21,34.84a1.74,1.74,0,1,1,0-2.47A1.74,1.74,0,0,1,51.21,34.84Z"/><path class="cls-2" d="M6.59,22.2c-.18-.06-.25,0-.3.17A5.94,5.94,0,0,0,6,24.7a.91.91,0,0,0,.26.56l3,2.67a1.66,1.66,0,0,0,.92.37l5.65.64a.82.82,0,0,0,.83-.32l1.44-2.24c.12-.19.15-.45-.1-.53L6.59,22.2Z"/></g></g></g></svg>