<svg xmlns="http://www.w3.org/2000/svg" viewBox="0 0 85.33 49.53"><defs><style>.cls-1{opacity:0.8;}.cls-2,.cls-3{fill:#999;}.cls-2{fill-rule:evenodd;}.cls-4{fill:red;}</style></defs><title>interior_icon</title><g id="Layer_2" data-name="Layer 2"><g id="Layer_1-2" data-name="Layer 1"><g class="cls-1"><path class="cls-2" d="M41.13,38.89A24.09,24.09,0,0,1,37.64,32H16.87c-.79,0-1.14.33-1.07,1.05l.37,5.18A190.61,190.61,0,0,0,41.13,38.89ZM7.28,35.6a2,2,0,1,0,2-2A2,2,0,0,0,7.28,35.6ZM16.84,29,18.3,26.7c.12-.2.15-.46-.11-.54L6.67,22.46c-.18-.06-.26,0-.31.17A6.09,6.09,0,0,0,6.1,25a.93.93,0,0,0,.27.57l3,2.7a1.66,1.66,0,0,0,.94.37l5.71.65A.84.84,0,0,0,16.84,29ZM34,30.27l3.21,0a24,24,0,0,1-.55-3.51c-.89,0-1.78,0-2.66,0-4.06,0-8.11-.11-12.21-.37-.82-.06-1.09.1-1.51.86L18.9,29.63c-.09.26,0,.41.29.4C24.05,30.2,29,30.28,34,30.27ZM46.74,5.13A114.94,114.94,0,0,0,34,4.51c-9.59,0-19.17.91-20.35,2.8L10,14.64c-.41.81-.6,1.4-.9,1.87a3.49,3.49,0,0,1-1.12-.66l.4-2.94c.06-.52,0-1-.49-1.07l-5.67-.61a1.33,1.33,0,0,0-1.31.64l-.77,1.6a.74.74,0,0,0,.48,1.06L6.48,16.6A2.06,2.06,0,0,1,7,17.78c-4.76,1.58-5.32,9.8-5,16.37a1,1,0,0,0,0,.24v9.75A.89.89,0,0,0,2.9,45h13a.89.89,0,0,0,.89-.89v-3q8.58.77,17.17.76c3.18,0,6.36-.09,9.54-.24-.41-.41-.8-.84-1.18-1.28-2.78.12-5.57.19-8.36.19q-9,0-18-.85l-2.84,1-8.45-.82A2,2,0,0,1,4,39.76c-.28-.35-.66-5.92-.69-6.77-.21-5.47.33-12.79,4.26-14a5.58,5.58,0,0,0,1.74-.79c.78-.57.82-.92,2-.9q13.14.77,26.29.64A24,24,0,0,1,46.74,5.13Z"/><path class="cls-3" d="M60.56,49.53A24.77,24.77,0,1,1,85.33,24.77,24.79,24.79,0,0,1,60.56,49.53Zm0-48A23.27,23.27,0,1,0,83.83,24.77,23.3,23.3,0,0,0,60.56,1.5Z"/><path class="cls-4" d="M66.48,31.68A56,56,0,0,1,60.6,32c-2.07,0-4-.13-5.77-.31a3.81,3.81,0,0,0-4.22,3.78,2.15,2.15,0,0,0,2,2.14c2.51.14,5.15.22,7.91.22s5.56-.08,8.13-.22a2.14,2.14,0,0,0,2-2.14h0A3.8,3.8,0,0,0,66.48,31.68Z"/><path class="cls-4" d="M58.06,13.48a16.71,16.71,0,0,0,2.66.19,17.62,17.62,0,0,0,2.53-.19,1.76,1.76,0,0,0,1.32-1.88v0c0-.42-.07-1-.14-1.55a1.68,1.68,0,0,0-1.3-1.54,15,15,0,0,0-2.42-.19,16.33,16.33,0,0,0-2.54.19A1.68,1.68,0,0,0,56.87,10c-.06.55-.11,1.13-.13,1.55v0A1.76,1.76,0,0,0,58.06,13.48Z"/><path class="cls-4" d="M55,30.54a55,55,0,0,0,5.73.3h-.05a57.94,57.94,0,0,0,5.89-.3,3.56,3.56,0,0,1,1.62.17,13.83,13.83,0,0,0-.45-4.89c-.41-1.85-1.08-3-.82-5.71a13.06,13.06,0,0,1,.35-2,2.77,2.77,0,0,0-.17-1.86,2.83,2.83,0,0,0-2.84-1.58c-1.1.11-2.3.18-3.58.18s-2.47-.07-3.58-.18a2.83,2.83,0,0,0-2.83,1.58,2.71,2.71,0,0,0-.17,1.86,12,12,0,0,1,.34,2c.26,2.67-.41,3.86-.81,5.71a13.86,13.86,0,0,0-.35,4.89A4.16,4.16,0,0,1,55,30.54Z"/><path class="cls-4" d="M68.35,38.7H53a.49.49,0,0,0-.37.81l.12.14A4.06,4.06,0,0,0,55.76,41h9.78a4.06,4.06,0,0,0,3-1.3l.19-.22A.49.49,0,0,0,68.35,38.7Zm-1,.93a3.94,3.94,0,0,1-2.36.76H56.29a4,4,0,0,1-2.37-.76.11.11,0,0,1,.07-.2H67.31A.11.11,0,0,1,67.37,39.63Z"/></g></g></g></svg>