<svg xmlns="http://www.w3.org/2000/svg" viewBox="0 0 85.33 49.53"><defs><style>.cls-1{opacity:0.8;}.cls-2,.cls-3{fill:#999;}.cls-2{fill-rule:evenodd;}.cls-4{fill:red;}</style></defs><title>design_icon</title><g id="Layer_2" data-name="Layer 2"><g id="Layer_1-2" data-name="Layer 1"><g class="cls-1"><path class="cls-2" d="M41.13,38.89A24.09,24.09,0,0,1,37.64,32H16.87c-.79,0-1.14.33-1.07,1.05l.37,5.18A190.61,190.61,0,0,0,41.13,38.89ZM16.84,29,18.3,26.7c.12-.2.15-.46-.11-.54L6.67,22.46c-.18-.06-.26,0-.31.17A6.09,6.09,0,0,0,6.1,25a.88.88,0,0,0,.27.56l3,2.71a1.66,1.66,0,0,0,.94.37l5.71.65A.84.84,0,0,0,16.84,29ZM7.28,35.6a2,2,0,1,0,2-2A2,2,0,0,0,7.28,35.6ZM34,30.27l3.21,0a24,24,0,0,1-.55-3.51c-.89,0-1.78,0-2.66,0-4.06,0-8.11-.11-12.21-.37-.82-.06-1.09.1-1.51.86L18.9,29.63c-.09.25,0,.41.29.4C24.05,30.2,29,30.28,34,30.27ZM46.74,5.13A114.94,114.94,0,0,0,34,4.51c-9.59,0-19.17.91-20.35,2.8L10,14.64c-.41.81-.6,1.4-.9,1.87a3.49,3.49,0,0,1-1.12-.66l.4-2.94c.06-.52,0-1-.49-1.07l-5.67-.61a1.32,1.32,0,0,0-1.31.65L.09,13.47a.74.74,0,0,0,.48,1.06L6.48,16.6A2.06,2.06,0,0,1,7,17.78c-4.76,1.58-5.32,9.8-5,16.37a1,1,0,0,0,0,.24v9.75A.89.89,0,0,0,2.9,45h13a.89.89,0,0,0,.89-.89v-3q8.58.77,17.17.76c3.18,0,6.36-.09,9.54-.24-.41-.41-.8-.84-1.18-1.28-2.78.12-5.57.19-8.36.19q-9,0-18-.85l-2.84,1-8.45-.82A2,2,0,0,1,4,39.76c-.28-.35-.66-5.92-.69-6.77-.21-5.47.33-12.79,4.26-14a5.58,5.58,0,0,0,1.74-.79c.78-.57.82-.92,2-.91q13.14.78,26.29.65A24,24,0,0,1,46.74,5.13Z"/><path class="cls-3" d="M60.56,49.53A24.77,24.77,0,1,1,85.33,24.77,24.79,24.79,0,0,1,60.56,49.53Zm0-48A23.27,23.27,0,1,0,83.83,24.77,23.3,23.3,0,0,0,60.56,1.5Z"/><rect class="cls-4" x="66.93" y="11.68" width="4.91" height="8.26" rx="1.34" transform="translate(9.15 53.7) rotate(-45.01)"/><path class="cls-4" d="M56.05,35,68.83,22.2a1.34,1.34,0,0,0,0-1.89l-4-3.95a1.34,1.34,0,0,0-1.89,0L50.21,29.14Z"/><polygon class="cls-4" points="48.8 32.33 47.21 37.83 52.52 36.29 48.8 32.33"/></g></g></g></svg>